<?xml version="1.0" encoding="UTF-8"?>
<svg version="1.1" xmlns="http://www.w3.org/2000/svg" width="1024" height="1024">
<path d="M0 0 C45.87 0 91.74 0 139 0 C135.489772 25.74167202 135.489772 25.74167202 133.88389587 37.05369568 C133.76172132 37.91450682 133.63954678 38.77531796 133.51366997 39.66221428 C133.38669794 40.5561445 133.25972591 41.45007473 133.12890625 42.37109375 C132.9941646 43.32039827 132.85942295 44.2697028 132.72059822 45.24777412 C131.67038458 52.64470406 130.61682662 60.04115535 129.5625 67.4375 C129.40548363 68.5397995 129.24846725 69.642099 129.08669281 70.77780151 C124.67545868 101.74088569 120.18037615 132.69079757 115.59765625 163.62890625 C115.426843 164.7821055 115.426843 164.7821055 115.25257897 165.95860171 C112.87505609 182.00730952 110.49014019 198.05491411 108.09880352 214.10156918 C107.34997479 219.12663429 106.60207979 224.15183828 105.85436016 229.17706853 C105.35492852 232.53281977 104.85477444 235.88846015 104.3529377 239.24385262 C103.80434291 242.9130087 103.25770202 246.58245124 102.71142578 250.25195312 C102.47159643 251.84984507 102.47159643 251.84984507 102.22692204 253.48001766 C101.36099583 259.31134512 100.61198905 265.1364236 100 271 C101.00484204 269.04414675 102.00373805 267.08523763 103 265.125 C103.556875 264.03445313 104.11375 262.94390625 104.6875 261.8203125 C106.14064094 259.21624918 106.14064094 259.21624918 106 257 C106.99 257 107.98 257 109 257 C109.25579834 256.30503418 109.51159668 255.61006836 109.77514648 254.89404297 C111.14819844 251.64984167 112.80857479 248.73042131 114.59765625 245.6953125 C115.12277046 244.80144081 115.12277046 244.80144081 115.65849304 243.88951111 C116.78974386 241.96597046 117.92599611 240.04544075 119.0625 238.125 C119.84626678 236.79498079 120.62979466 235.46482078 121.41308594 234.13452148 C125.8390699 226.62442811 130.29546339 219.13309602 134.796875 211.66796875 C141.31647778 200.83925931 147.70486961 189.9302424 154.0859375 179.01953125 C163.88743287 162.26192635 173.81269914 145.58446724 183.83398438 128.95703125 C191.41876815 116.36677381 198.94191285 103.74281909 206.375 91.0625 C206.75211121 90.41945923 207.12922241 89.77641846 207.51776123 89.1138916 C208.58306987 87.29651445 209.64728031 85.47850034 210.7109375 83.66015625 C211.32243652 82.61480713 211.93393555 81.56945801 212.56396484 80.49243164 C213.41437866 79.0164244 214.23818624 77.52362752 215 76 C218.98138478 77.32712826 219.9463389 79.26254611 222.4375 82.625 C223.32799605 83.81227259 224.21998638 84.99842553 225.11328125 86.18359375 C225.5820166 86.80733887 226.05075195 87.43108398 226.53369141 88.07373047 C229.00751728 91.32356167 231.56572074 94.50481696 234.125 97.6875 C234.63369629 98.32139648 235.14239258 98.95529297 235.66650391 99.60839844 C237.11002926 101.40638376 238.5548809 103.20329557 240 105 C244.37986221 110.45430882 248.73506399 115.92351508 253.01953125 121.453125 C255.02304934 124.02964136 257.0368935 126.59767741 259.05615234 129.16186523 C260.01705037 130.38516608 260.97442746 131.61124099 261.92822266 132.84008789 C263.97616609 135.47249657 266.02842316 138.03156493 268.26171875 140.51171875 C273.44336627 146.36603451 273.4398853 150.38946058 273 158 C272.65536945 162.35958506 272.18630944 166.69857658 271.6875 171.04296875 C271.4877356 172.85562981 271.4877356 172.85562981 271.28393555 174.70491028 C270.86159739 178.53309203 270.43154141 182.3603456 270 186.1875 C269.56903822 190.02542196 269.1399037 193.86350935 268.71606445 197.70222473 C268.45326608 200.08119189 268.1863842 202.45971265 267.91479492 204.83769226 C267.2768106 210.60043757 266.85182162 216.20207978 267 222 C268.1492567 219.25138605 269.29451341 216.50122016 270.4375 213.75 C270.92573242 212.58404297 270.92573242 212.58404297 271.42382812 211.39453125 C271.73642578 210.64042969 272.04902344 209.88632812 272.37109375 209.109375 C272.65911865 208.41811523 272.94714355 207.72685547 273.24389648 207.01464844 C274.03825594 205.02747963 274.03825594 205.02747963 274.47363281 202.99438477 C275.06248182 200.7632588 275.95781608 199.01311881 277.05078125 196.98046875 C280.86060548 189.51014457 283.93751314 181.72612004 287.10327148 173.9675293 C288.19012762 171.30606556 289.28508754 168.6480379 290.38085938 165.99023438 C291.08121474 164.28144894 291.78110096 162.57247112 292.48046875 160.86328125 C292.80444138 160.0777034 293.128414 159.29212555 293.46220398 158.48274231 C295.26891194 154.03788945 296.77169845 149.63909698 298 145 C298.66 145 299.32 145 300 145 C300.16290527 144.40864258 300.32581055 143.81728516 300.49365234 143.20800781 C302.41429815 136.50078317 304.88463315 130.16027376 307.625 123.75 C308.51394523 121.65013067 309.40194294 119.54986001 310.2890625 117.44921875 C310.96243652 115.8566626 310.96243652 115.8566626 311.64941406 114.23193359 C312.98922431 111.02578608 314.29406064 107.80776362 315.5859375 104.58203125 C315.99247559 103.56979492 316.39901367 102.55755859 316.81787109 101.51464844 C317.59418446 99.57594931 318.36550771 97.63524306 319.13134766 95.69238281 C319.47987793 94.82581055 319.8284082 93.95923828 320.1875 93.06640625 C320.64189453 91.9208728 320.64189453 91.9208728 321.10546875 90.75219727 C322 89 322 89 324 88 C324.26554687 88.55429687 324.53109375 89.10859375 324.8046875 89.6796875 C325.33449219 90.76636719 325.33449219 90.76636719 325.875 91.875 C326.22304688 92.59429687 326.57109375 93.31359375 326.9296875 94.0546875 C327.96557543 96.15135019 327.96557543 96.15135019 330 98 C330.66 99.32 331.32 100.64 332 102 C350.48 102 368.96 102 388 102 C387.38576589 108.75657524 386.73926372 115.28814802 385.60131836 121.94042969 C385.46462234 122.75984543 385.32792633 123.57926117 385.18708801 124.42350769 C384.89366895 126.17954386 384.5984402 127.93527848 384.30152702 129.69072723 C383.83108805 132.47367051 383.36609429 135.2574769 382.90248108 138.04156494 C381.5846272 145.94904955 380.25633387 153.85477412 378.92651367 161.76025391 C378.11014739 166.61562424 377.29929211 171.4718905 376.49160957 176.32871246 C376.03507693 179.06305808 375.5720405 181.79625196 375.10887146 184.52947998 C374.82865549 186.21197713 374.54877614 187.89453038 374.26928711 189.57714844 C374.13994781 190.32951279 374.01060852 191.08187714 373.87734985 191.85704041 C373.14785099 196.30181536 372.87981926 200.49522176 373 205 C372.34 205 371.68 205 371 205 C370.93665215 206.12357658 370.93665215 206.12357658 370.87202454 207.26985168 C370.27344614 216.39109382 368.93998528 225.32216496 367.41796875 234.32421875 C367.15940283 235.87994154 366.90138406 237.43575535 366.64387512 238.99165344 C365.96800476 243.06764165 365.28573969 247.14253124 364.60174561 251.21716309 C363.6527363 256.87654168 362.71170154 262.53724971 361.77127075 268.19805908 C361.24642582 271.3567266 360.71723888 274.51462381 360.18502808 277.67205811 C359.02143424 284.60447992 357.90040181 291.53086072 356.96728516 298.49902344 C355.20209672 311.59022306 352.49269455 322.86552007 347 334.875 C346.32314523 336.41741206 345.64930123 337.96114837 344.97827148 339.50610352 C343.63612458 342.58519591 342.27878561 345.65672263 340.90576172 348.72216797 C338.69821298 353.65828384 336.58461319 358.63125905 334.47460938 363.60986328 C332.00984382 369.41808502 329.50337081 375.20833846 327 381 C326.69729187 381.70038391 326.39458374 382.40076782 326.08270264 383.12237549 C325.43227948 384.62710056 324.78163891 386.13173167 324.13079834 387.63627625 C323.45498633 389.20005408 322.78039425 390.76435967 322.10699463 392.32917786 C320.38850912 396.31745152 318.64887526 400.29368879 316.86279297 404.25219727 C313.64329695 411.44360089 310.73242306 418.39898679 308.82421875 426.0546875 C306.66615351 433.9750041 304.38972428 442.32140661 297.24822998 447.19561768 C287.62835411 452.58256911 276.60394516 455.24623088 266.04450989 458.14508057 C257.41484717 460.52590863 248.94181426 463.27591145 240.4765625 466.17578125 C239.47980908 466.51702656 239.47980908 466.51702656 238.46291924 466.86516571 C235.75898869 467.79190948 233.0556656 468.72038834 230.35331631 469.6517334 C225.63364852 471.27815422 220.90772442 472.88503695 216.17700195 474.47900391 C201.10876274 479.55756758 186.06803263 484.70030355 171.13183594 490.15722656 C170.06352539 490.54491211 168.99521484 490.93259766 167.89453125 491.33203125 C167.00612549 491.65921143 166.11771973 491.9863916 165.20239258 492.32348633 C163 493 163 493 160 493 C163.79952624 468.04939611 167.71968071 443.1206603 171.75238037 418.20672607 C173.27237255 408.81443138 174.7844825 399.42086464 176.296875 390.02734375 C176.450247 389.07484993 176.603619 388.12235611 176.76163864 387.14099884 C179.88642794 367.73196005 182.99619387 348.32056251 186.07635498 328.90438843 C186.60617961 325.56525351 187.13786371 322.22642311 187.67120361 318.8878479 C188.29281587 314.99613962 188.91071513 311.1038606 189.52562714 307.21108818 C189.75033749 305.79240614 189.97634041 304.37392812 190.20374298 302.95567513 C190.51296786 301.02554878 190.81692079 299.09458001 191.12060547 297.16357422 C191.29155731 296.08695526 191.46250916 295.0103363 191.63864136 293.90109253 C191.97155117 291.22839552 192.06989227 288.68924202 192 286 C184.31828758 297.99045202 176.63954593 309.98262443 169 322 C159.12621203 337.52850506 149.22794285 353.04151875 139.21533203 368.48095703 C130.58696706 381.79830407 122.05761671 395.18022518 113.55078125 408.57543945 C102.252045 426.36618834 102.252045 426.36618834 96.5378418 434.98950195 C93.73635438 439.23050577 91.10885978 443.45874217 88.81616211 447.99804688 C84.40267352 455.41567475 84.40267352 455.41567475 79.78509521 457.33926392 C78.57951965 457.60967499 77.37394409 457.88008606 76.13183594 458.15869141 C75.47379848 458.3134173 74.81576103 458.4681432 74.13778305 458.62755775 C72.7677058 458.94739042 71.3952717 459.25728385 70.02073669 459.55738068 C66.92217824 460.23608456 63.84288605 460.99454418 60.75878906 461.73583984 C58.26168436 462.31354434 55.76393777 462.88847989 53.265625 463.4609375 C51.89438474 463.7769562 50.52319042 464.09317432 49.15203857 464.40957642 C46.29524153 465.06824843 43.43806735 465.72524794 40.58056641 466.38085938 C37.00727554 467.20072972 33.43471283 468.02371904 29.86238861 468.84778976 C22.92421869 470.44815841 15.98422417 472.04029537 9.0417099 473.62171555 C5.67591135 474.38851423 2.31076209 475.15793434 -1.05297852 475.93371582 C-4.85132051 476.80970425 -8.65207853 477.67488 -12.453125 478.5390625 C-13.59593933 478.80423676 -14.73875366 479.06941101 -15.91619873 479.34262085 C-16.95608948 479.57711945 -17.99598022 479.81161804 -19.06738281 480.05322266 C-19.97643372 480.26129547 -20.88548462 480.46936829 -21.82208252 480.68374634 C-24 481 -24 481 -26 480 C-25.77650879 478.70835937 -25.55301758 477.41671875 -25.32275391 476.0859375 C-22.33264024 458.58780748 -19.74554141 441.03658371 -17.1762085 423.4730835 C-15.73901026 413.65030467 -14.29128709 403.82907211 -12.84375 394.0078125 C-12.68922237 392.95902042 -12.53469475 391.91022835 -12.37548447 390.82965469 C-9.12228942 368.75697233 -5.81123322 346.69311611 -2.49220943 324.63025188 C-0.03032967 308.26351306 2.42211009 291.89535773 4.87437439 275.5271759 C5.19353825 273.39692889 5.51270793 271.26668275 5.83188379 269.13643754 C6.05164694 267.66968767 6.27140339 266.2029368 6.49115336 264.73618495 C7.88409752 255.4392026 9.27863248 246.14246062 10.67510986 236.8460083 C14.08598483 214.13884073 17.49065977 191.43076825 20.88063812 168.72047043 C22.43654304 158.29858181 23.99598444 147.87724778 25.56427002 137.45721436 C26.90872591 128.52434756 28.24637146 119.5904943 29.57530564 110.65530461 C30.2629094 106.03368753 30.95385556 101.41263145 31.65338326 96.79280281 C32.30055613 92.51812649 32.93842752 88.24216758 33.56903815 83.96501756 C33.80001012 82.40976904 34.03437862 80.85502043 34.27245736 79.30084395 C34.59635903 77.18305513 34.90784167 75.06378756 35.21635437 72.94371033 C35.39300471 71.76389052 35.56965506 70.58407072 35.75165844 69.3684988 C36.23777638 62.77480707 35.26271072 58.14032763 31 53 C30.01 53 29.02 53 28 53 C28.33 52.01 28.66 51.02 29 50 C27.84398029 47.37909153 27.84398029 47.37909153 26.0546875 44.5390625 C25.39533203 43.4368335 24.73597656 42.33460449 24.05664062 41.19897461 C23.32963905 40.00752037 22.60242101 38.8161982 21.875 37.625 C21.14436559 36.41137998 20.41455336 35.19726461 19.68554688 33.98266602 C14.49210952 25.35375826 9.20305258 16.78076058 3.81201172 8.27392578 C3.30686035 7.47067871 2.80170898 6.66743164 2.28125 5.83984375 C1.83845703 5.14238037 1.39566406 4.44491699 0.93945312 3.72631836 C0 2 0 2 0 0 Z M193 282 C194 284 194 284 194 284 Z " fill="#000000" transform="translate(158,271)"/>
<path d="M0 0 C139.59 0 279.18 0 423 0 C403 119 403 119 401 127 C362.39 127 323.78 127 284 127 C285.98 115.12 287.96 103.24 290 91 C290.33 88.69 290.66 86.38 291 84 C289.8855249 84.00523682 288.7710498 84.01047363 287.62280273 84.01586914 C283.46493339 84.03404906 279.30706751 84.0454793 275.14916992 84.05493164 C273.3539165 84.05994225 271.55866713 84.06675255 269.76342773 84.07543945 C267.17430622 84.0876489 264.58523893 84.09326116 261.99609375 84.09765625 C260.80348183 84.10539818 260.80348183 84.10539818 259.58677673 84.11329651 C258.82651688 84.11337204 258.06625702 84.11344757 257.28295898 84.11352539 C256.29367653 84.11685631 256.29367653 84.11685631 255.28440857 84.12025452 C252.15637706 83.95559049 249.09464774 83.47191139 246 83 C245.84966309 83.95966171 245.69932617 84.91932343 245.54443359 85.9080658 C241.92482557 108.99610434 238.21365048 132.06728223 234.40281677 155.12448883 C233.69644261 159.39975296 232.99134409 163.67522752 232.28613281 167.95068359 C231.39821037 173.33365794 230.51021313 178.71661982 229.62164307 184.0994873 C227.84144618 194.88556366 226.06843199 205.67278971 224.30238342 216.46119118 C223.11998116 223.68274372 221.93538223 230.90393607 220.75 238.125 C220.61589722 238.94200253 220.48179443 239.75900505 220.34362793 240.60076523 C216.01528683 266.96161404 211.61251536 293.30978688 207.18365955 319.65390062 C206.76534933 322.14226484 206.34713355 324.63064492 205.92894745 327.11903 C203.2650024 342.97039574 200.60005347 358.82158911 197.92627406 374.67129934 C196.59758017 382.54819845 195.27136461 390.42551312 193.94655132 398.30306578 C193.56460442 400.57342844 193.18223331 402.84371937 192.79981232 405.11400223 C190.44750787 419.08583213 188.1044535 433.05737408 185.98828125 447.06738281 C185.84397171 448.0220299 185.69966217 448.97667698 185.55097961 449.96025276 C184.9175157 454.1738984 184.29680439 458.38887321 183.69750977 462.60751343 C183.59290939 463.32299221 183.48830902 464.03847099 183.38053894 464.77563095 C183.11011751 466.62604707 182.84833449 468.47772023 182.58740234 470.32949829 C182 473 182 473 180 475 C177.89543724 475.24609566 177.89543724 475.24609566 175.24179077 475.24050903 C174.23775711 475.24325836 173.23372345 475.24600769 172.19926453 475.24884033 C171.09371719 475.24164978 169.98816986 475.23445923 168.84912109 475.22705078 C167.68815414 475.22734283 166.52718719 475.22763489 165.33103943 475.22793579 C161.47843046 475.22653804 157.62601285 475.21095575 153.7734375 475.1953125 C151.1082832 475.19158395 148.44313963 475.1886379 145.77798462 475.18673706 C139.47043425 475.18051488 133.162953 475.16409413 126.85543311 475.14403808 C119.67536378 475.12170199 112.4952912 475.11069143 105.3151958 475.10064721 C90.54342847 475.07972851 75.77171544 475.04453823 61 475 C62.612779 463.45050124 64.26564296 451.92029527 66.28515625 440.43359375 C66.61390141 438.53652469 66.94263707 436.63945396 67.27109051 434.74233437 C67.62250873 432.71492489 67.97524013 430.68774743 68.32824707 428.66061401 C69.64239446 421.10894125 70.94073005 413.55453919 72.23828125 406 C72.380238 405.17370527 72.52219475 404.34741055 72.66845322 403.49607658 C76.68219838 380.11761994 80.60403766 356.72364987 84.51412964 333.32766724 C85.33780199 328.39966488 86.16351148 323.47201064 86.99099731 318.54464722 C87.97543609 312.68191096 88.95582896 306.81851237 89.93308449 300.95457458 C90.29796509 298.76893931 90.66420561 296.58353058 91.03186607 294.39836121 C91.53774695 291.38981127 92.03856172 288.38046052 92.53808594 285.37084961 C92.68757218 284.48877051 92.83705843 283.60669142 92.99107456 282.69788265 C93.64377833 278.73411313 94.06602507 275.02689161 94 271 C94.6439846 268.66030499 95.31336692 266.32753601 96 264 C96.58105338 261.23019737 97.04691055 258.44437622 97.5078125 255.65234375 C97.63815887 254.87742081 97.76850525 254.10249786 97.90280151 253.30409241 C98.17533708 251.67661628 98.44582596 250.04879621 98.71435547 248.4206543 C99.12457212 245.94008739 99.544303 243.46125686 99.96484375 240.98242188 C100.22974163 239.3933249 100.4940835 237.80413513 100.7578125 236.21484375 C100.88278107 235.48031479 101.00774963 234.74578583 101.13650513 233.98899841 C101.79470825 229.9489538 102.12776939 226.09223647 102 222 C102.33 222 102.66 222 103 222 C103.20681396 220.75911621 103.41362793 219.51823242 103.62670898 218.23974609 C106.43530273 201.38818359 106.43530273 201.38818359 109.24389648 184.53662109 C109.3762973 183.74217087 109.50869812 182.94772064 109.64511108 182.12919617 C109.93069821 180.41578395 110.21642531 178.70239507 110.50219727 176.98901367 C111.05421092 173.67449518 111.60460344 170.35970936 112.15490723 167.04490662 C112.77309286 163.32240165 113.39213954 159.60004004 114.01123047 155.87768555 C114.33736645 153.91581961 114.6632123 151.95390542 114.98876953 149.99194336 C115.4604956 147.14944867 115.9332714 144.30713026 116.40625 141.46484375 C116.55106812 140.59077377 116.69588623 139.7167038 116.84509277 138.81614685 C117.50401195 134.86226808 118.21387563 130.93062187 119 127 C119.56033538 123.78935875 120.09429019 120.57438563 120.62890625 117.359375 C120.8598423 115.97519379 120.8598423 115.97519379 121.09544373 114.56304932 C121.41941526 112.61989879 121.74297958 110.67668034 122.06616211 108.73339844 C122.56307547 105.74654093 123.06172704 102.75997714 123.56054688 99.7734375 C123.87510407 97.885434 124.18956073 95.99741375 124.50390625 94.109375 C124.72887535 92.76259674 124.72887535 92.76259674 124.95838928 91.38861084 C125.68195239 87.71266651 125.68195239 87.71266651 126 84 C125.14079956 84.02442673 124.28159912 84.04885345 123.3963623 84.07402039 C115.27597542 84.29496299 107.15660545 84.4621598 99.0338974 84.56993389 C94.85820228 84.62720979 90.68500144 84.70479668 86.51074219 84.82983398 C82.47750123 84.94988292 78.44664868 85.0152269 74.41175842 85.04364967 C72.87730802 85.06388546 71.34298025 85.10340946 69.80955505 85.16303062 C57.82563236 85.61019483 57.82563236 85.61019483 53.34228516 81.65591431 C51.27893886 78.85483936 49.61934413 76.07488225 48 73 C46.90962527 71.30355571 45.80785554 69.61429568 44.6875 67.9375 C44.23761719 67.22464844 43.78773438 66.51179688 43.32421875 65.77734375 C41.94833355 63.7230263 41.94833355 63.7230263 39 62 C39 61.01 39 60.02 39 59 C37.57772093 56.82352702 36.12363193 54.76055407 34.5625 52.6875 C30.68751703 47.506343 27.1364958 42.15297767 23.65957642 36.69946289 C20.7419362 32.13148202 17.76303047 27.60842901 14.74609375 23.10546875 C14.30950943 22.45339951 13.87292511 21.80133026 13.42311096 21.12950134 C11.63415443 18.45964816 9.84319401 15.79114926 8.05053711 13.1237793 C6.71792173 11.13982016 5.38808458 9.15402252 4.05859375 7.16796875 C3.64935165 6.56083542 3.24010956 5.95370209 2.81846619 5.32817078 C0 1.11329296 0 1.11329296 0 0 Z " fill="#1291D0" transform="translate(442,271)"/>
<path d="M0 0 C0.33 0 0.66 0 1 0 C1.20625 1.0725 1.4125 2.145 1.625 3.25 C4.67075668 15.13895366 11.51669811 23.85088893 20.2734375 32.15625 C22 34 22 34 22 36 C22.55042969 36.2371875 23.10085938 36.474375 23.66796875 36.71875 C26.57311543 38.31487749 28.81615861 40.31785925 31.3125 42.5 C44.87637628 54.01869481 60.60006477 62.74398965 75.73486328 71.99707031 C78.83918496 73.90135139 81.93524022 75.81814363 85.02734375 77.7421875 C85.96433105 78.32508545 86.90131836 78.9079834 87.86669922 79.50854492 C89.59975462 80.58789848 91.33192623 81.66867311 93.06298828 82.7512207 C97.63340366 85.59377324 102.2481128 88.28980229 106.99072266 90.8359375 C109.77287326 92.44775938 112.24916816 94.37522063 114.78515625 96.34375 C117.37296202 98.27889929 120.04744565 100.04125502 122.75 101.8125 C127.16230289 104.73339949 131.49333128 107.73344602 135.75 110.875 C136.75546875 111.61492187 137.7609375 112.35484375 138.796875 113.1171875 C139.52390625 113.73851562 140.2509375 114.35984375 141 115 C141 115.66 141 116.32 141 117 C141.598125 117.25523437 142.19625 117.51046875 142.8125 117.7734375 C149.8651231 121.72794402 153.72671025 131.30745974 156.25 138.625 C159.18033321 152.1414919 156.27350019 166.44404718 151 179 C150.34 179 149.68 179 149 179 C148.82984375 178.2265625 148.6596875 177.453125 148.484375 176.65625 C141.37550062 146.10321544 112.64714767 130.50797883 87.80273438 115.00488281 C81.29974591 110.97744144 74.7760469 106.98385067 68.25195312 102.99072266 C29.62952151 79.34753141 29.62952151 79.34753141 16 66 C15.23171875 65.2678125 14.4634375 64.535625 13.671875 63.78125 C1.78877592 51.65563869 -3.30237991 37.15070338 -3.24194336 20.46289062 C-2.96017353 5.92034705 -2.96017353 5.92034705 0 0 Z " fill="#1390CF" transform="translate(666,588)"/>
<path d="M0 0 C0.66 0 1.32 0 2 0 C2.23074219 1.03898438 2.46148438 2.07796875 2.69921875 3.1484375 C6.98831265 21.77925907 16.28243874 37.05289433 32.21484375 48.26171875 C34.8267398 49.95261211 34.8267398 49.95261211 37 51 C37.6084375 51.61810547 38.216875 52.23621094 38.84375 52.87304688 C40.95702668 54.95761056 42.99717412 56.44821263 45.5 58.03125 C46.37664307 58.58820557 47.25328613 59.14516113 48.15649414 59.71899414 C49.09485107 60.30672607 50.03320801 60.89445801 51 61.5 C52.4684436 62.42703735 52.4684436 62.42703735 53.96655273 63.37280273 C61.09397165 67.85350182 68.28804324 72.21538607 75.51855469 76.52709961 C90.65893686 85.55655054 105.65543644 94.74054405 120 105 C120.91241455 105.650896 120.91241455 105.650896 121.84326172 106.31494141 C129.25272245 111.63255439 129.25272245 111.63255439 132 114 C132 114.66 132 115.32 132 116 C132.99 116.33 133.98 116.66 135 117 C135 117.66 135 118.32 135 119 C135.58910156 119.23847656 136.17820312 119.47695313 136.78515625 119.72265625 C143.95415044 123.85715555 148.3832873 134.46549649 151 142 C153.73993634 152.30543221 152.87136625 162.50827928 152 173 C151.34 173 150.68 173 150 173 C149.67128906 172.1646875 149.67128906 172.1646875 149.3359375 171.3125 C146.92475801 165.50998676 143.94909325 160.86362011 140 156 C139.278125 155.030625 138.55625 154.06125 137.8125 153.0625 C133.84662473 148.38480096 128.82597774 144.73666676 124 141 C122.91138672 140.15308594 122.91138672 140.15308594 121.80078125 139.2890625 C113.63811251 133.28063488 104.6154623 128.54218099 95.79785156 123.58056641 C93.10535071 122.05951488 90.42204166 120.52367429 87.7421875 118.98046875 C78.48118412 113.64776868 69.17869118 108.39600644 59.8125 103.25 C58.86125244 102.7240625 57.91000488 102.198125 56.92993164 101.65625 C56.05199951 101.17671875 55.17406738 100.6971875 54.26953125 100.203125 C53.10321167 99.56358887 53.10321167 99.56358887 51.91333008 98.91113281 C50.05224738 97.85668583 50.05224738 97.85668583 48 98 C46.98370301 97.01656701 45.98601496 96.01379214 45 95 C43.80673114 94.17233764 42.58709531 93.38177365 41.34765625 92.625 C40.65349609 92.19703125 39.95933594 91.7690625 39.24414062 91.328125 C38.16422852 90.67070313 38.16422852 90.67070313 37.0625 90 C30.20297373 85.80155008 24.01712268 81.34289963 18 76 C17.44183594 75.52046875 16.88367188 75.0409375 16.30859375 74.546875 C6.04143223 65.1134737 -2.22668833 50.63834058 -3.16113281 36.57495117 C-3.36978247 23.99410477 -2.99018344 12.26331184 0 0 Z " fill="#1290CF" transform="translate(656,622)"/>
<path d="M0 0 C4.54028024 4.54028024 5.11849721 15.30401885 5.4375 21.625 C4.8262563 35.73675664 -2.69243585 47.52980964 -12.5703125 57.01953125 C-24.91090371 68.03712214 -39.19551385 76.95678338 -53 86 C-55.58675716 87.70319912 -58.16982495 89.41184734 -60.75 91.125 C-61.35207275 91.52428711 -61.95414551 91.92357422 -62.57446289 92.33496094 C-67.61347394 95.69748326 -72.54513777 99.20163165 -77.43457031 102.77783203 C-80.19558435 104.78322608 -82.87977364 106.60311034 -86 108 C-86 108.66 -86 109.32 -86 110 C-87.46875 111.375 -87.46875 111.375 -89.5 113 C-95.36305012 117.97628987 -100.78844666 123.94431464 -104 131 C-104.66 130.67 -105.32 130.34 -106 130 C-109.21471089 117.87433612 -108.69191517 105.2676688 -103 94 C-92.53464831 77.48239673 -73.06484332 66.64681704 -57.10595703 56.11303711 C-44.85031469 48.02192407 -32.80964573 39.72514898 -21.6640625 30.13671875 C-19 28 -19 28 -17 28 C-16.60554687 27.11828125 -16.60554687 27.11828125 -16.203125 26.21875 C-14.94810152 23.90429111 -13.58115667 22.38064739 -11.75 20.5 C-7.3216544 15.58167045 -4.75226661 9.96466447 -2 4 C-1.33864714 2.66402298 -0.67425306 1.32951308 0 0 Z " fill="#9B9B9D" transform="translate(832,483)"/>
<path d="M0 0 C0.99 0.495 0.99 0.495 2 1 C2.71826502 24.70274568 -3.21797414 41.55143359 -19.03515625 59.28125 C-24.25654301 64.68490282 -30.09725681 69.36785596 -36 74 C-36.63115723 74.49693359 -37.26231445 74.99386719 -37.91259766 75.50585938 C-46.88197712 82.54083481 -56.00441852 89.17752864 -65.55371094 95.39746094 C-70.44504047 98.60172113 -75.30654803 101.85117754 -80.17193604 105.09463501 C-81.96243691 106.28747529 -83.75429109 107.47825856 -85.54638672 108.66870117 C-92.41992597 113.23494667 -92.41992597 113.23494667 -99.125 118.04296875 C-102 120 -102 120 -105 120 C-105.61880763 106.14558465 -104.5393249 97.30850248 -94.90234375 86.6171875 C-87.21685156 79.6867975 -78.33190851 74.13682357 -69.71557617 68.44625854 C-66.75391195 66.48900817 -63.79927002 64.52119818 -60.84375 62.5546875 C-60.25758911 62.16488205 -59.67142822 61.7750766 -59.06750488 61.37345886 C-37.96392051 47.54633836 -37.96392051 47.54633836 -19 31 C-18.113125 30.154375 -17.22625 29.30875 -16.3125 28.4375 C-13.99393413 26.23050295 -13.99393413 26.23050295 -13 24 C-12 22 -12 22 -9.6875 20 C-5.51630289 16.05093765 -3.98933545 10.24905353 -2 5 C-1.33606903 3.33224166 -0.67035934 1.66518485 0 0 Z " fill="#9B9B9C" transform="translate(844,513)"/>
<path d="M0 0 C139.59 0 279.18 0 423 0 C421.515 7.92 421.515 7.92 420 16 C419.67 16 419.34 16 419 16 C418.7628573 10.30857517 419.54268803 6.82924789 421 1 C283.72 1 146.44 1 5 1 C7.31 5.62 9.62 10.24 12 15 C11.67 15.66 11.34 16.32 11 17 C9.16291774 14.35675132 7.33097086 11.70998489 5.5 9.0625 C4.97535156 8.30775391 4.45070313 7.55300781 3.91015625 6.77539062 C3.41386719 6.05673828 2.91757812 5.33808594 2.40625 4.59765625 C1.94541016 3.93258057 1.48457031 3.26750488 1.00976562 2.58227539 C0 1 0 1 0 0 Z " fill="#107FB7" transform="translate(442,271)"/>
<path d="M0 0 C0.33 0 0.66 0 1 0 C1.12422888 5.52008346 0.72828081 10.67007243 -0.2578125 16.109375 C-0.39710175 16.91159485 -0.53639099 17.7138147 -0.67990112 18.54034424 C-0.98984279 20.32247225 -1.30273938 22.10408818 -1.61816406 23.88525391 C-2.53395561 29.06150536 -3.42541056 34.24197858 -4.3203125 39.421875 C-4.52384338 40.59681519 -4.72737427 41.77175537 -4.93707275 42.9822998 C-7.7268477 59.1319184 -10.39598433 75.30184622 -13.08114624 91.46911621 C-14.59686098 100.59446172 -16.11642925 109.71916568 -17.63671875 118.84375 C-17.78315889 119.72269676 -17.92959904 120.60164352 -18.08047676 121.50722504 C-20.63588025 136.84188646 -23.20867399 152.17347565 -25.8125 167.5 C-25.97548584 168.46244629 -26.13847168 169.42489258 -26.30639648 170.41650391 C-26.75071671 173.0383832 -27.19716472 175.65988901 -27.64453125 178.28125 C-27.76987747 179.02177612 -27.89522369 179.76230225 -28.02436829 180.52526855 C-28.5740412 183.72871752 -29.2108008 186.84320319 -30 190 C8.61 190 47.22 190 87 190 C87.828067 181.75298286 87.828067 181.75298286 88.5625 173.5 C88.68818359 171.99953125 88.68818359 171.99953125 88.81640625 170.46875 C89.02472077 168.08017915 89.02472077 168.08017915 89 166 C89.66 166 90.32 166 91 166 C91.33 165.01 91.66 164.02 92 163 C90.38297872 188.61702128 90.38297872 188.61702128 87 192 C84.89543724 192.24609566 84.89543724 192.24609566 82.24179077 192.24050903 C81.23775711 192.24325836 80.23372345 192.24600769 79.19926453 192.24884033 C77.54094353 192.2380545 77.54094353 192.2380545 75.84912109 192.22705078 C74.68815414 192.22734283 73.52718719 192.22763489 72.33103943 192.22793579 C68.47843046 192.22653804 64.62601285 192.21095575 60.7734375 192.1953125 C58.1082832 192.19158395 55.44313963 192.1886379 52.77798462 192.18673706 C46.47043425 192.18051488 40.162953 192.16409413 33.85543311 192.14403808 C26.67536378 192.12170199 19.4952912 192.11069143 12.3151958 192.10064721 C-2.45657153 192.07972851 -17.22828456 192.04453823 -32 192 C-30.37584613 180.36843062 -28.70603245 168.75708502 -26.6796875 157.1875 C-26.34695806 155.26191654 -26.01423401 153.33633214 -25.68167686 151.41071892 C-25.32703817 149.3600759 -24.97101987 147.30967669 -24.61462402 145.25933838 C-23.29979235 137.69257138 -21.99765913 130.12361152 -20.6953125 122.5546875 C-20.55430115 121.73561794 -20.41328979 120.91654839 -20.26800537 120.07265854 C-16.02814101 95.43484215 -11.89397612 70.77908601 -7.75 46.125 C-7.3605026 43.80826678 -6.97099662 41.491535 -6.58148193 39.17480469 C-4.38614463 26.11678995 -2.19227916 13.05852851 0 0 Z " fill="#1476AA" transform="translate(535,554)"/>
<path d="M0 0 C0.33 0 0.66 0 1 0 C0.51721353 10.59913357 -1.18354903 20.89807179 -3.01123047 31.33300781 C-3.50493702 34.15320169 -3.98948117 36.97485952 -4.47265625 39.796875 C-4.78333017 41.59644471 -5.09450927 43.39592729 -5.40625 45.1953125 C-5.55106812 46.03587189 -5.69588623 46.87643127 -5.84509277 47.74246216 C-6.40264977 50.91509608 -6.97976253 53.93928759 -8 57 C-46.61 57 -85.22 57 -125 57 C-124.34 55.68 -123.68 54.36 -123 53 C-123 53.66 -123 54.32 -123 55 C-85.38 55 -47.76 55 -9 55 C-8.67 52.03 -8.34 49.06 -8 46 C-7.73751358 44.24873333 -7.45818056 42.49979083 -7.15209961 40.75561523 C-6.99200912 39.83534042 -6.83191864 38.91506561 -6.66697693 37.96690369 C-6.41223351 36.52729027 -6.41223351 36.52729027 -6.15234375 35.05859375 C-5.97619034 34.05031021 -5.80003693 33.04202667 -5.61854553 32.00318909 C-5.06079381 28.81416469 -4.49921078 25.62582918 -3.9375 22.4375 C-3.55638625 20.26241435 -3.17552437 18.08728455 -2.79492188 15.91210938 C-1.86619269 10.60755901 -0.93432536 5.30356738 0 0 Z " fill="#1380B8" transform="translate(851,341)"/>
<path d="M0 0 C0.33 0 0.66 0 1 0 C0.38043027 9.85456296 -1.35662162 19.47824055 -3.0625 29.1875 C-3.69500391 32.81991575 -4.32437811 36.45286974 -4.953125 40.0859375 C-5.11754593 41.034048 -5.28196686 41.98215851 -5.45137024 42.95899963 C-6.73246625 50.37496937 -7.96029862 57.79894883 -9.171875 65.2265625 C-9.53244359 67.42814572 -9.89303909 69.62972453 -10.25366211 71.83129883 C-10.78243251 75.06115351 -11.30908498 78.29128107 -11.82913208 81.52255249 C-12.31393618 84.53293083 -12.80660996 87.54192862 -13.30078125 90.55078125 C-13.4432428 91.44999298 -13.58570435 92.34920471 -13.73248291 93.27566528 C-13.93898468 94.52040115 -13.93898468 94.52040115 -14.1496582 95.7902832 C-14.26622269 96.5104512 -14.38278717 97.2306192 -14.50288391 97.97261047 C-15.04655489 100.1898649 -15.91014155 102.00078162 -17 104 C-16.76205939 101.38265328 -16.5234364 98.76539612 -16.28125 96.1484375 C-16.10129625 94.13395529 -15.93345893 92.1183308 -15.78125 90.1015625 C-15.67296875 88.72097656 -15.67296875 88.72097656 -15.5625 87.3125 C-15.47162109 86.06919922 -15.47162109 86.06919922 -15.37890625 84.80078125 C-15 82 -15 82 -14.06835938 78.35498047 C-12.99020223 74.10603936 -12.22480289 69.84511375 -11.52734375 65.51953125 C-11.39936905 64.74365158 -11.27139435 63.96777191 -11.13954163 63.16838074 C-10.7357506 60.71691911 -10.33642382 58.26475791 -9.9375 55.8125 C-9.53414244 53.34968024 -9.12984342 50.88701853 -8.7247467 48.42448425 C-8.47422793 46.89987021 -8.22484958 45.3750682 -7.97679138 43.85005188 C-7.38268729 40.2175079 -6.72567968 36.60808951 -6 33 C-5.60660863 30.68623758 -5.22204369 28.37096624 -4.84375 26.0546875 C-4.62379139 24.71743254 -4.40373645 23.38019342 -4.18359375 22.04296875 C-3.84024332 19.95183164 -3.49764947 17.8605792 -3.15673828 15.76904297 C-2.82543053 13.73889171 -2.49106804 11.70926236 -2.15625 9.6796875 C-1.85944336 7.86573486 -1.85944336 7.86573486 -1.55664062 6.01513672 C-1 3 -1 3 0 0 Z " fill="#1476AA" transform="translate(567,365)"/>
<path d="M0 0 C0.66 0.33 1.32 0.66 2 1 C1.57847656 1.38671875 1.15695312 1.7734375 0.72265625 2.171875 C-0.09912109 2.95304688 -0.09912109 2.95304688 -0.9375 3.75 C-1.48277344 4.26046875 -2.02804687 4.7709375 -2.58984375 5.296875 C-4.14048498 6.9048925 -4.14048498 6.9048925 -4.44140625 9.015625 C-5.20594112 11.73159504 -6.77705183 12.33278887 -9 14 C-14.55096804 23.71419406 -13.38279596 35.23918017 -13 46 C-12.34 46 -11.68 46 -11 46 C-11.33 47.32 -11.66 48.64 -12 50 C-12.66 49.67 -13.32 49.34 -14 49 C-17.19959936 36.93133576 -16.74792428 24.20192061 -11 13 C-7.74358203 8.28607237 -4.10735702 3.99219748 0 0 Z " fill="#838990" transform="translate(740,564)"/>
<path d="M0 0 C0.66 0.33 1.32 0.66 2 1 C1.14277344 1.6290625 0.28554688 2.258125 -0.59765625 2.90625 C-13.78485491 12.2083023 -13.78485491 12.2083023 -21 26 C-21.22843974 31.01529055 -21.17429248 35.98424977 -21 41 C-19.35 40.34 -17.7 39.68 -16 39 C-18.3125 41.5 -18.3125 41.5 -21 44 C-21.99 44 -22.98 44 -24 44 C-24.55080456 31.66809799 -24.25685656 22.71509916 -15.9375 12.875 C-11.15445535 7.83685963 -5.75897644 3.85367021 0 0 Z " fill="#7E8186" transform="translate(763,589)"/>
<path d="M0 0 C0.33 0 0.66 0 1 0 C1.17005254 6.04901176 0.56018869 11.58878123 -0.53125 17.53125 C-0.68662231 18.40777222 -0.84199463 19.28429443 -1.0020752 20.18737793 C-1.4949613 22.95944462 -1.99731594 25.72969513 -2.5 28.5 C-2.8378692 30.39051258 -3.17511499 32.2811367 -3.51171875 34.171875 C-4.33394401 38.78257073 -5.1646596 43.39166314 -6 48 C-6.33 48 -6.66 48 -7 48 C-6.93941406 47.28457031 -6.87882813 46.56914063 -6.81640625 45.83203125 C-6.17665054 38.22385955 -5.57712716 30.6131668 -5 23 C-4.67 23 -4.34 23 -4 23 C-2.68 15.41 -1.36 7.82 0 0 Z " fill="#1674A6" transform="translate(549,470)"/>
<path d="M0 0 C0.33 0 0.66 0 1 0 C1.10784251 4.8286485 0.751128 9.27490502 -0.09375 14.02734375 C-0.31933594 15.31318359 -0.54492188 16.59902344 -0.77734375 17.92382812 C-1.01809948 19.26174209 -1.2589865 20.59963244 -1.5 21.9375 C-1.74143094 23.30263801 -1.9823213 24.66787174 -2.22265625 26.03320312 C-2.80980191 29.35644757 -3.40241228 32.67862017 -4 36 C-4.33 36 -4.66 36 -5 36 C-5.05479286 34.1461748 -5.09314594 32.2918612 -5.125 30.4375 C-5.14820313 29.40496094 -5.17140625 28.37242187 -5.1953125 27.30859375 C-4.97699847 23.61035409 -4.06087431 20.54635128 -3 17 C-2.38375814 14.03319706 -1.87684572 11.05053038 -1.375 8.0625 C-1.2409375 7.28326172 -1.106875 6.50402344 -0.96875 5.70117188 C-0.6424032 3.80136729 -0.32071377 1.90076363 0 0 Z " fill="#1573A4" transform="translate(541,518)"/>
<path d="M0 0 C0.33 0 0.66 0 1 0 C0.4262611 9.08923201 -0.61050442 18.00200434 -2 27 C-2.66 26.34 -3.32 25.68 -4 25 C-3.7578125 22.0234375 -3.7578125 22.0234375 -3.125 18.375 C-2.2844446 13.13769328 -1.78833256 8.29168594 -2 3 C-1.34 3 -0.68 3 0 3 C0 2.01 0 1.02 0 0 Z " fill="#1580B6" transform="translate(626,717)"/>
<path d="M0 0 C0.33 0 0.66 0 1 0 C1.66 4.29 2.32 8.58 3 13 C4.65 12.34 6.3 11.68 8 11 C5.6875 13.5 5.6875 13.5 3 16 C2.01 16 1.02 16 0 16 C0 10.72 0 5.44 0 0 Z " fill="#818B93" transform="translate(739,617)"/>
<path d="M0 0 C0.99 0 1.98 0 3 0 C4.19725883 2.28703308 5.38297018 4.57884862 6.5625 6.875 C6.90474609 7.52597656 7.24699219 8.17695313 7.59960938 8.84765625 C8.46082891 10.53529857 9.23686703 12.26579593 10 14 C9.67 14.66 9.34 15.32 9 16 C7.49130977 13.90160347 5.99301643 11.79700219 4.5 9.6875 C4.07074219 9.09259766 3.64148438 8.49769531 3.19921875 7.88476562 C0 3.33984375 0 3.33984375 0 0 Z " fill="#1486C1" transform="translate(444,272)"/>
<path d="M0 0 C0.33 0 0.66 0 1 0 C1 5.61 1 11.22 1 17 C0.67 17 0.34 17 0 17 C0 14.69 0 12.38 0 10 C-0.99 10.33 -1.98 10.66 -3 11 C-2.32829194 7.1936543 -1.27253436 3.64793184 0 0 Z " fill="#A4A4A6" transform="translate(843,518)"/>
<path d="M0 0 C2 1 4 2 6 3 C6 3.66 6 4.32 6 5 C6.99 5.33 7.98 5.66 9 6 C9 6.66 9 7.32 9 8 C10.32 8.66 11.64 9.32 13 10 C12.67 10.66 12.34 11.32 12 12 C7.57905197 8.27653164 3.42166518 4.70478962 0 0 Z " fill="#1381BA" transform="translate(782,733)"/>
<path d="M0 0 C0.33 0 0.66 0 1 0 C1.33 3.3 1.66 6.6 2 10 C1.67 9.01 1.34 8.02 1 7 C-0.65 8.32 -2.3 9.64 -4 11 C-3.52269162 9.5410574 -3.04308958 8.08286504 -2.5625 6.625 C-2.29566406 5.81289063 -2.02882813 5.00078125 -1.75390625 4.1640625 C-1 2 -1 2 0 0 Z " fill="#A8A7A8" transform="translate(832,486)"/>
<path d="M0 0 C1.9451 2.91765 2.45276317 4.62537285 3 8 C2.34 8 1.68 8 1 8 C0.67 9.98 0.34 11.96 0 14 C-0.33 14 -0.66 14 -1 14 C-1.027193 12.41676312 -1.04648306 10.83338938 -1.0625 9.25 C-1.07410156 8.36828125 -1.08570313 7.4865625 -1.09765625 6.578125 C-1.00826198 4.2181162 -0.66912821 2.25501476 0 0 Z " fill="#179BDB" transform="translate(666,594)"/>
<path d="M0 0 C5.28 0 10.56 0 16 0 C16 0.33 16 0.66 16 1 C10.72 1 5.44 1 0 1 C0 0.67 0 0.34 0 0 Z " fill="#188FCA" transform="translate(787,399)"/>
<path d="M0 0 C3.3 0 6.6 0 10 0 C10 0.33 10 0.66 10 1 C6.7 1 3.4 1 0 1 C0 0.67 0 0.34 0 0 Z " fill="#188DC7" transform="translate(816,399)"/>
<path d="M0 0 C3.3 0 6.6 0 10 0 C10 0.33 10 0.66 10 1 C6.7 1 3.4 1 0 1 C0 0.67 0 0.34 0 0 Z " fill="#1890CD" transform="translate(776,399)"/>
<path d="M0 0 C1.65 0 3.3 0 5 0 C5 0.33 5 0.66 5 1 C3.35 1 1.7 1 0 1 C0 0.67 0 0.34 0 0 Z " fill="#198EC9" transform="translate(804,399)"/>
<path d="M0 0 C1.65 0 3.3 0 5 0 C5 0.33 5 0.66 5 1 C3.35 1 1.7 1 0 1 C0 0.67 0 0.34 0 0 Z " fill="#1891CF" transform="translate(765,399)"/>
<path d="M0 0 C1.65 0 3.3 0 5 0 C5 0.33 5 0.66 5 1 C3.35 1 1.7 1 0 1 C0 0.67 0 0.34 0 0 Z " fill="#1891CE" transform="translate(756,399)"/>
<path d="M0 0 C1 4 1 4 1 4 Z " fill="#1A7FB3" transform="translate(520,632)"/>
<path d="M0 0 C1 4 1 4 1 4 Z " fill="#1A75A5" transform="translate(528,584)"/>
<path d="M0 0 C1 4 1 4 1 4 Z " fill="#1A74A4" transform="translate(536,536)"/>
<path d="M0 0 C1 4 1 4 1 4 Z " fill="#1A77A7" transform="translate(544,488)"/>
<path d="M0 0 C4 1 4 1 4 1 Z " fill="#1888C1" transform="translate(836,399)"/>
<path d="M0 0 C0 3 0 3 0 3 Z " fill="#1686C1" transform="translate(457,296)"/>
<path d="M0 0 C3 1 3 1 3 1 Z " fill="#2694CC" transform="translate(724,648)"/>
<path d="" fill="#06090A" transform="translate(0,0)"/>
<path d="" fill="#0D1013" transform="translate(0,0)"/>
<path d="M0 0 C0.33 0.66 0.66 1.32 1 2 C0.34 1.67 -0.32 1.34 -1 1 C-0.67 0.67 -0.34 0.34 0 0 Z " fill="#9A9EA2" transform="translate(773,573)"/>
<path d="" fill="#1671A1" transform="translate(0,0)"/>
<path d="" fill="#197AAE" transform="translate(0,0)"/>
<path d="" fill="#1684BD" transform="translate(0,0)"/>
<path d="M0 0 C2 1 2 1 2 1 Z " fill="#1B7CAF" transform="translate(801,787)"/>
<path d="" fill="#1990CC" transform="translate(0,0)"/>
<path d="M0 0 C2 1 2 1 2 1 Z " fill="#188DCC" transform="translate(760,751)"/>
<path d="M0 0 C2 1 2 1 2 1 Z " fill="#0E1011" transform="translate(196,738)"/>
<path d="" fill="#1893D1" transform="translate(0,0)"/>
<path d="M0 0 C2 1 2 1 2 1 Z " fill="#0C0F11" transform="translate(406,735)"/>
<path d="" fill="#1A8FC9" transform="translate(0,0)"/>
<path d="M0 0 C2 1 2 1 2 1 Z " fill="#0F1013" transform="translate(228,731)"/>
<path d="M0 0 C2 1 2 1 2 1 Z " fill="#1A96D3" transform="translate(745,699)"/>
<path d="" fill="#090C0E" transform="translate(0,0)"/>
<path d="" fill="#1A97D4" transform="translate(0,0)"/>
<path d="" fill="#1A93D1" transform="translate(0,0)"/>
<path d="" fill="#1A7FB1" transform="translate(0,0)"/>
<path d="" fill="#1F94CD" transform="translate(0,0)"/>
<path d="" fill="#1F93CD" transform="translate(0,0)"/>
<path d="" fill="#1976A4" transform="translate(0,0)"/>
<path d="" fill="#7C98AB" transform="translate(0,0)"/>
<path d="M0 0 C2 1 2 1 2 1 Z " fill="#90969C" transform="translate(792,599)"/>
<path d="M0 0 C2 1 2 1 2 1 Z " fill="#9C9EA2" transform="translate(767,584)"/>
<path d="" fill="#060708" transform="translate(0,0)"/>
<path d="" fill="#173548" transform="translate(0,0)"/>
<path d="M0 0 C2 1 2 1 2 1 Z " fill="#939CA2" transform="translate(740,561)"/>
<path d="" fill="#0F1013" transform="translate(0,0)"/>
<path d="" fill="#898C93" transform="translate(0,0)"/>
<path d="" fill="#1B75A4" transform="translate(0,0)"/>
<path d="" fill="#1870A1" transform="translate(0,0)"/>
<path d="" fill="#050508" transform="translate(0,0)"/>
<path d="M0 0 C2 1 2 1 2 1 Z " fill="#030609" transform="translate(430,416)"/>
<path d="M0 0 C2 1 2 1 2 1 Z " fill="#188AC6" transform="translate(832,399)"/>
<path d="M0 0 C2 1 2 1 2 1 Z " fill="#198CC5" transform="translate(829,399)"/>
<path d="M0 0 C2 1 2 1 2 1 Z " fill="#198DC9" transform="translate(812,399)"/>
<path d="M0 0 C2 1 2 1 2 1 Z " fill="#1892CD" transform="translate(773,399)"/>
<path d="M0 0 C2 1 2 1 2 1 Z " fill="#1793D0" transform="translate(752,399)"/>
<path d="M0 0 C2 1 2 1 2 1 Z " fill="#1790CB" transform="translate(749,399)"/>
<path d="M0 0 C2 1 2 1 2 1 Z " fill="#1690CD" transform="translate(744,399)"/>
<path d="" fill="#1885BD" transform="translate(0,0)"/>
<path d="" fill="#103046" transform="translate(0,0)"/>
<path d="" fill="#1892D1" transform="translate(0,0)"/>
<path d="" fill="#04060A" transform="translate(0,0)"/>
<path d="" fill="#030506" transform="translate(0,0)"/>
<path d="" fill="#158BC5" transform="translate(0,0)"/>
<path d="" fill="#178AC4" transform="translate(0,0)"/>
<path d="" fill="#060708" transform="translate(0,0)"/>
<path d="" fill="#0F1010" transform="translate(0,0)"/>
<path d="" fill="#1C86BC" transform="translate(0,0)"/>
<path d="" fill="#1A8BC6" transform="translate(0,0)"/>
<path d="" fill="#1A84BA" transform="translate(0,0)"/>
<path d="" fill="#1B8CC7" transform="translate(0,0)"/>
<path d="" fill="#1C90CB" transform="translate(0,0)"/>
<path d="" fill="#188FCC" transform="translate(0,0)"/>
<path d="" fill="#1A88BD" transform="translate(0,0)"/>
<path d="" fill="#090B0D" transform="translate(0,0)"/>
<path d="" fill="#0D0C0F" transform="translate(0,0)"/>
<path d="" fill="#0D1010" transform="translate(0,0)"/>
<path d="" fill="#1E88BF" transform="translate(0,0)"/>
<path d="" fill="#0C0E12" transform="translate(0,0)"/>
<path d="" fill="#0B0E0F" transform="translate(0,0)"/>
<path d="" fill="#0E1113" transform="translate(0,0)"/>
<path d="" fill="#1690CD" transform="translate(0,0)"/>
<path d="" fill="#1B91CB" transform="translate(0,0)"/>
<path d="" fill="#0B0C0D" transform="translate(0,0)"/>
<path d="" fill="#198ECA" transform="translate(0,0)"/>
<path d="" fill="#0B0E11" transform="translate(0,0)"/>
<path d="" fill="#0E0E0E" transform="translate(0,0)"/>
<path d="" fill="#1A93D0" transform="translate(0,0)"/>
<path d="" fill="#0E0F10" transform="translate(0,0)"/>
<path d="" fill="#1894D0" transform="translate(0,0)"/>
<path d="" fill="#198DC7" transform="translate(0,0)"/>
<path d="" fill="#0E1011" transform="translate(0,0)"/>
<path d="" fill="#1892CF" transform="translate(0,0)"/>
<path d="" fill="#1B8DC6" transform="translate(0,0)"/>
<path d="" fill="#1A93D2" transform="translate(0,0)"/>
<path d="" fill="#1792D0" transform="translate(0,0)"/>
<path d="" fill="#0F1217" transform="translate(0,0)"/>
<path d="" fill="#1B93D0" transform="translate(0,0)"/>
<path d="" fill="#1980B7" transform="translate(0,0)"/>
<path d="" fill="#0D0F12" transform="translate(0,0)"/>
<path d="" fill="#1694D7" transform="translate(0,0)"/>
<path d="" fill="#102029" transform="translate(0,0)"/>
<path d="" fill="#1B8ECB" transform="translate(0,0)"/>
<path d="" fill="#1A8ECE" transform="translate(0,0)"/>
<path d="" fill="#1A83B8" transform="translate(0,0)"/>
<path d="" fill="#1C96D4" transform="translate(0,0)"/>
<path d="" fill="#1A90CD" transform="translate(0,0)"/>
<path d="" fill="#1A82B7" transform="translate(0,0)"/>
<path d="" fill="#0D0F12" transform="translate(0,0)"/>
<path d="" fill="#1596D3" transform="translate(0,0)"/>
<path d="" fill="#1994D4" transform="translate(0,0)"/>
<path d="" fill="#1883B8" transform="translate(0,0)"/>
<path d="" fill="#1695D9" transform="translate(0,0)"/>
<path d="" fill="#1A82B8" transform="translate(0,0)"/>
<path d="" fill="#1B92CE" transform="translate(0,0)"/>
<path d="" fill="#1991CE" transform="translate(0,0)"/>
<path d="" fill="#1882B8" transform="translate(0,0)"/>
<path d="" fill="#1A95D4" transform="translate(0,0)"/>
<path d="" fill="#2291C8" transform="translate(0,0)"/>
<path d="" fill="#1A95D2" transform="translate(0,0)"/>
<path d="" fill="#152C3B" transform="translate(0,0)"/>
<path d="" fill="#1998D5" transform="translate(0,0)"/>
<path d="" fill="#1A96D5" transform="translate(0,0)"/>
<path d="" fill="#1793D1" transform="translate(0,0)"/>
<path d="" fill="#1E8EC6" transform="translate(0,0)"/>
<path d="" fill="#1793D2" transform="translate(0,0)"/>
<path d="" fill="#142836" transform="translate(0,0)"/>
<path d="" fill="#1997D5" transform="translate(0,0)"/>
<path d="" fill="#1B86BD" transform="translate(0,0)"/>
<path d="" fill="#090F0E" transform="translate(0,0)"/>
<path d="" fill="#1996D6" transform="translate(0,0)"/>
<path d="" fill="#1983B9" transform="translate(0,0)"/>
<path d="" fill="#1C93D1" transform="translate(0,0)"/>
<path d="" fill="#1A93CF" transform="translate(0,0)"/>
<path d="" fill="#1894D6" transform="translate(0,0)"/>
<path d="" fill="#1896D5" transform="translate(0,0)"/>
<path d="" fill="#2292CB" transform="translate(0,0)"/>
<path d="" fill="#1E92CB" transform="translate(0,0)"/>
<path d="" fill="#1981B8" transform="translate(0,0)"/>
<path d="" fill="#1A95D3" transform="translate(0,0)"/>
<path d="" fill="#0A090A" transform="translate(0,0)"/>
<path d="" fill="#1997D3" transform="translate(0,0)"/>
<path d="" fill="#2993C8" transform="translate(0,0)"/>
<path d="" fill="#1895D6" transform="translate(0,0)"/>
<path d="" fill="#2693CC" transform="translate(0,0)"/>
<path d="" fill="#1895D5" transform="translate(0,0)"/>
<path d="" fill="#1A7DAE" transform="translate(0,0)"/>
<path d="" fill="#1B7FB3" transform="translate(0,0)"/>
<path d="" fill="#090B0E" transform="translate(0,0)"/>
<path d="" fill="#0B0A0D" transform="translate(0,0)"/>
<path d="" fill="#2594CA" transform="translate(0,0)"/>
<path d="" fill="#2E97C8" transform="translate(0,0)"/>
<path d="" fill="#05050A" transform="translate(0,0)"/>
<path d="" fill="#5C97B8" transform="translate(0,0)"/>
<path d="" fill="#1B94D2" transform="translate(0,0)"/>
<path d="" fill="#2493CC" transform="translate(0,0)"/>
<path d="" fill="#7A99AF" transform="translate(0,0)"/>
<path d="" fill="#7D9AAE" transform="translate(0,0)"/>
<path d="" fill="#8599A7" transform="translate(0,0)"/>
<path d="" fill="#2194CD" transform="translate(0,0)"/>
<path d="" fill="#1A94D3" transform="translate(0,0)"/>
<path d="" fill="#153649" transform="translate(0,0)"/>
<path d="" fill="#829BAC" transform="translate(0,0)"/>
<path d="" fill="#1A79AF" transform="translate(0,0)"/>
<path d="" fill="#1A74A4" transform="translate(0,0)"/>
<path d="" fill="#8B9AA5" transform="translate(0,0)"/>
<path d="" fill="#2B97CC" transform="translate(0,0)"/>
<path d="" fill="#2997CC" transform="translate(0,0)"/>
<path d="" fill="#1B78A9" transform="translate(0,0)"/>
<path d="" fill="#7899AD" transform="translate(0,0)"/>
<path d="" fill="#1893D4" transform="translate(0,0)"/>
<path d="" fill="#1794D5" transform="translate(0,0)"/>
<path d="" fill="#060708" transform="translate(0,0)"/>
<path d="" fill="#7B99AC" transform="translate(0,0)"/>
<path d="" fill="#1894D4" transform="translate(0,0)"/>
<path d="" fill="#133245" transform="translate(0,0)"/>
<path d="" fill="#163544" transform="translate(0,0)"/>
<path d="" fill="#90989E" transform="translate(0,0)"/>
<path d="" fill="#90989C" transform="translate(0,0)"/>
<path d="" fill="#969CA2" transform="translate(0,0)"/>
<path d="" fill="#9D9FA2" transform="translate(0,0)"/>
<path d="" fill="#9B9DA3" transform="translate(0,0)"/>
<path d="" fill="#969DA1" transform="translate(0,0)"/>
<path d="" fill="#0F1113" transform="translate(0,0)"/>
<path d="" fill="#999DA2" transform="translate(0,0)"/>
<path d="" fill="#9B9EA2" transform="translate(0,0)"/>
<path d="" fill="#050606" transform="translate(0,0)"/>
<path d="" fill="#979BA0" transform="translate(0,0)"/>
<path d="" fill="#8899A6" transform="translate(0,0)"/>
<path d="" fill="#9A9DA2" transform="translate(0,0)"/>
<path d="" fill="#111213" transform="translate(0,0)"/>
<path d="" fill="#9A9EA1" transform="translate(0,0)"/>
<path d="" fill="#949698" transform="translate(0,0)"/>
<path d="" fill="#9B9FA4" transform="translate(0,0)"/>
<path d="" fill="#9A9CA1" transform="translate(0,0)"/>
<path d="" fill="#1E92CF" transform="translate(0,0)"/>
<path d="" fill="#909499" transform="translate(0,0)"/>
<path d="" fill="#9A9DA1" transform="translate(0,0)"/>
<path d="" fill="#91949A" transform="translate(0,0)"/>
<path d="" fill="#919699" transform="translate(0,0)"/>
<path d="" fill="#959BA1" transform="translate(0,0)"/>
<path d="" fill="#1A72A2" transform="translate(0,0)"/>
<path d="" fill="#1C93CD" transform="translate(0,0)"/>
<path d="" fill="#8B9196" transform="translate(0,0)"/>
<path d="" fill="#9B9FA0" transform="translate(0,0)"/>
<path d="" fill="#909BA2" transform="translate(0,0)"/>
<path d="" fill="#919597" transform="translate(0,0)"/>
<path d="" fill="#9DA0A5" transform="translate(0,0)"/>
<path d="" fill="#9299A3" transform="translate(0,0)"/>
<path d="" fill="#9F9EA3" transform="translate(0,0)"/>
<path d="" fill="#9D9FA2" transform="translate(0,0)"/>
<path d="" fill="#1A73A0" transform="translate(0,0)"/>
<path d="" fill="#9A9CA1" transform="translate(0,0)"/>
<path d="" fill="#959EA3" transform="translate(0,0)"/>
<path d="" fill="#999A9F" transform="translate(0,0)"/>
<path d="" fill="#939CA4" transform="translate(0,0)"/>
<path d="" fill="#1A73A2" transform="translate(0,0)"/>
<path d="" fill="#9B9DA1" transform="translate(0,0)"/>
<path d="" fill="#1B8FCD" transform="translate(0,0)"/>
<path d="" fill="#17384C" transform="translate(0,0)"/>
<path d="" fill="#9B9D9F" transform="translate(0,0)"/>
<path d="" fill="#9A9CA1" transform="translate(0,0)"/>
<path d="" fill="#9C9DA1" transform="translate(0,0)"/>
<path d="" fill="#0E1113" transform="translate(0,0)"/>
<path d="" fill="#949CA1" transform="translate(0,0)"/>
<path d="" fill="#989DA5" transform="translate(0,0)"/>
<path d="" fill="#989CA0" transform="translate(0,0)"/>
<path d="" fill="#9C9FA1" transform="translate(0,0)"/>
<path d="" fill="#9A9C9F" transform="translate(0,0)"/>
<path d="" fill="#9A9CA0" transform="translate(0,0)"/>
<path d="" fill="#9B9CA1" transform="translate(0,0)"/>
<path d="" fill="#979DA1" transform="translate(0,0)"/>
<path d="" fill="#969BA2" transform="translate(0,0)"/>
<path d="" fill="#989FA4" transform="translate(0,0)"/>
<path d="" fill="#0D1010" transform="translate(0,0)"/>
<path d="" fill="#969AA0" transform="translate(0,0)"/>
<path d="" fill="#898C91" transform="translate(0,0)"/>
<path d="" fill="#989A9D" transform="translate(0,0)"/>
<path d="" fill="#98989F" transform="translate(0,0)"/>
<path d="" fill="#15364A" transform="translate(0,0)"/>
<path d="" fill="#97999D" transform="translate(0,0)"/>
<path d="" fill="#959B9F" transform="translate(0,0)"/>
<path d="" fill="#1A75A3" transform="translate(0,0)"/>
<path d="" fill="#97989C" transform="translate(0,0)"/>
<path d="" fill="#959A9F" transform="translate(0,0)"/>
<path d="" fill="#040506" transform="translate(0,0)"/>
<path d="" fill="#9599A0" transform="translate(0,0)"/>
<path d="" fill="#969DA1" transform="translate(0,0)"/>
<path d="" fill="#969BA1" transform="translate(0,0)"/>
<path d="" fill="#94979C" transform="translate(0,0)"/>
<path d="" fill="#1E90CD" transform="translate(0,0)"/>
<path d="" fill="#153549" transform="translate(0,0)"/>
<path d="" fill="#19729E" transform="translate(0,0)"/>
<path d="" fill="#030509" transform="translate(0,0)"/>
<path d="" fill="#80868D" transform="translate(0,0)"/>
<path d="" fill="#95999D" transform="translate(0,0)"/>
<path d="" fill="#95989E" transform="translate(0,0)"/>
<path d="" fill="#1D94CE" transform="translate(0,0)"/>
<path d="" fill="#163548" transform="translate(0,0)"/>
<path d="" fill="#0B0D10" transform="translate(0,0)"/>
<path d="" fill="#8D969C" transform="translate(0,0)"/>
<path d="" fill="#070707" transform="translate(0,0)"/>
<path d="" fill="#040407" transform="translate(0,0)"/>
<path d="" fill="#060506" transform="translate(0,0)"/>
<path d="" fill="#06070A" transform="translate(0,0)"/>
<path d="" fill="#0E100F" transform="translate(0,0)"/>
<path d="" fill="#1C92CE" transform="translate(0,0)"/>
<path d="" fill="#174158" transform="translate(0,0)"/>
<path d="" fill="#060608" transform="translate(0,0)"/>
<path d="" fill="#1B739F" transform="translate(0,0)"/>
<path d="" fill="#040707" transform="translate(0,0)"/>
<path d="" fill="#1A72A1" transform="translate(0,0)"/>
<path d="" fill="#163749" transform="translate(0,0)"/>
<path d="" fill="#0B0E0F" transform="translate(0,0)"/>
<path d="" fill="#163449" transform="translate(0,0)"/>
<path d="" fill="#050809" transform="translate(0,0)"/>
<path d="" fill="#07070A" transform="translate(0,0)"/>
<path d="" fill="#1B719E" transform="translate(0,0)"/>
<path d="" fill="#0A080B" transform="translate(0,0)"/>
<path d="" fill="#020407" transform="translate(0,0)"/>
<path d="" fill="#080A0D" transform="translate(0,0)"/>
<path d="" fill="#1876A7" transform="translate(0,0)"/>
<path d="" fill="#050609" transform="translate(0,0)"/>
<path d="" fill="#060A0B" transform="translate(0,0)"/>
<path d="" fill="#070C0C" transform="translate(0,0)"/>
<path d="" fill="#1891CE" transform="translate(0,0)"/>
<path d="" fill="#030809" transform="translate(0,0)"/>
<path d="" fill="#163C52" transform="translate(0,0)"/>
<path d="" fill="#13364A" transform="translate(0,0)"/>
<path d="" fill="#1971A2" transform="translate(0,0)"/>
<path d="" fill="#050607" transform="translate(0,0)"/>
<path d="" fill="#05070A" transform="translate(0,0)"/>
<path d="" fill="#080C0D" transform="translate(0,0)"/>
<path d="" fill="#15374A" transform="translate(0,0)"/>
<path d="" fill="#060609" transform="translate(0,0)"/>
<path d="" fill="#1A91CD" transform="translate(0,0)"/>
<path d="" fill="#1991CD" transform="translate(0,0)"/>
<path d="" fill="#188ECC" transform="translate(0,0)"/>
<path d="" fill="#071420" transform="translate(0,0)"/>
<path d="" fill="#07080A" transform="translate(0,0)"/>
<path d="" fill="#09070B" transform="translate(0,0)"/>
<path d="" fill="#091820" transform="translate(0,0)"/>
<path d="" fill="#188AC1" transform="translate(0,0)"/>
<path d="" fill="#1A7EB3" transform="translate(0,0)"/>
<path d="" fill="#050B12" transform="translate(0,0)"/>
<path d="" fill="#0B1F2A" transform="translate(0,0)"/>
<path d="" fill="#197EB3" transform="translate(0,0)"/>
<path d="" fill="#070909" transform="translate(0,0)"/>
<path d="" fill="#030B0F" transform="translate(0,0)"/>
<path d="" fill="#09141A" transform="translate(0,0)"/>
<path d="" fill="#0E212E" transform="translate(0,0)"/>
<path d="" fill="#080E10" transform="translate(0,0)"/>
<path d="" fill="#081115" transform="translate(0,0)"/>
<path d="" fill="#1A6288" transform="translate(0,0)"/>
<path d="" fill="#060E11" transform="translate(0,0)"/>
<path d="" fill="#174F6B" transform="translate(0,0)"/>
<path d="" fill="#174A65" transform="translate(0,0)"/>
<path d="" fill="#0F2D3B" transform="translate(0,0)"/>
<path d="" fill="#133F5B" transform="translate(0,0)"/>
<path d="" fill="#19526E" transform="translate(0,0)"/>
<path d="" fill="#113144" transform="translate(0,0)"/>
<path d="" fill="#0A0A0C" transform="translate(0,0)"/>
<path d="" fill="#143F56" transform="translate(0,0)"/>
<path d="" fill="#1795D4" transform="translate(0,0)"/>
<path d="" fill="#1995D1" transform="translate(0,0)"/>
<path d="" fill="#196994" transform="translate(0,0)"/>
<path d="" fill="#19648A" transform="translate(0,0)"/>
<path d="" fill="#081218" transform="translate(0,0)"/>
<path d="" fill="#178EC9" transform="translate(0,0)"/>
<path d="" fill="#156C9B" transform="translate(0,0)"/>
<path d="" fill="#1774A7" transform="translate(0,0)"/>
<path d="" fill="#050508" transform="translate(0,0)"/>
<path d="" fill="#1776AA" transform="translate(0,0)"/>
<path d="" fill="#0D1B22" transform="translate(0,0)"/>
<path d="" fill="#1A79AC" transform="translate(0,0)"/>
<path d="" fill="#197FB5" transform="translate(0,0)"/>
<path d="" fill="#1689C6" transform="translate(0,0)"/>
<path d="" fill="#1886BE" transform="translate(0,0)"/>
<path d="" fill="#1887BD" transform="translate(0,0)"/>
<path d="" fill="#1687C4" transform="translate(0,0)"/>
<path d="" fill="#1888C1" transform="translate(0,0)"/>
<path d="" fill="#1884BD" transform="translate(0,0)"/>
<path d="" fill="#060608" transform="translate(0,0)"/>
<path d="" fill="#1789C0" transform="translate(0,0)"/>
<path d="" fill="#1989C2" transform="translate(0,0)"/>
<path d="" fill="#188AC3" transform="translate(0,0)"/>
<path d="" fill="#188CC4" transform="translate(0,0)"/>
<path d="" fill="#050806" transform="translate(0,0)"/>
<path d="" fill="#09090B" transform="translate(0,0)"/>
<path d="" fill="#050608" transform="translate(0,0)"/>
<path d="" fill="#040505" transform="translate(0,0)"/>
<path d="" fill="#030403" transform="translate(0,0)"/>
<path d="" fill="#040303" transform="translate(0,0)"/>
<path d="" fill="#197FB3" transform="translate(0,0)"/>
<path d="" fill="#1775A6" transform="translate(0,0)"/>
<path d="" fill="#167EB5" transform="translate(0,0)"/>
<path d="" fill="#1688C1" transform="translate(0,0)"/>
<path d="" fill="#158BC3" transform="translate(0,0)"/>
<path d="" fill="#178CC8" transform="translate(0,0)"/>
<path d="" fill="#148BC7" transform="translate(0,0)"/>
<path d="" fill="#158AC6" transform="translate(0,0)"/>
<path d="" fill="#168AC8" transform="translate(0,0)"/>
<path d="" fill="#168BC6" transform="translate(0,0)"/>
<path d="" fill="#1789C2" transform="translate(0,0)"/>
<path d="" fill="#168AC4" transform="translate(0,0)"/>
<path d="" fill="#158AC3" transform="translate(0,0)"/>
<path d="" fill="#060607" transform="translate(0,0)"/>
</svg>
